HIERARCHY
ROOT SpineBase
{
  OFFSET 0.000000 0.000000 0.000000
  CHANNELS 6 Xposition Yposition Zposition Zrotation Xrotation Yrotation
  JOINT SpineMid
  {
    OFFSET -0.000000 30.087701 0.000000
    CHANNELS 3 Zrotation Xrotation Yrotation
    JOINT SpineShoulder
    {
      OFFSET 0.132858 22.423146 -0.617960
      CHANNELS 3 Zrotation Xrotation Yrotation
      JOINT Neck
      {
        OFFSET 0.106372 7.409252 -0.540269
        CHANNELS 3 Zrotation Xrotation Yrotation
        JOINT Head
        {
          OFFSET 4.227751 11.325180 3.071842
          CHANNELS 3 Zrotation Xrotation Yrotation
          End Site
          {
            OFFSET 0 0 0
          }
        }
      }
      JOINT ShoulderLeft
      {
        OFFSET -2.650547 -3.679595 -12.812290
        CHANNELS 3 Zrotation Xrotation Yrotation
        JOINT ElbowLeft
        {
          OFFSET 3.762257 -22.110775 -4.463795
          CHANNELS 3 Zrotation Xrotation Yrotation
          JOINT WristLeft
          {
            OFFSET 7.314525 -23.755174 2.915712
            CHANNELS 3 Zrotation Xrotation Yrotation
            JOINT HandLeft
            {
              OFFSET 1.216955 -8.579768 1.619706
              CHANNELS 3 Zrotation Xrotation Yrotation
              JOINT HandTipLeft
              {
                OFFSET 3.187074 -5.884375 1.585729
                CHANNELS 3 Zrotation Xrotation Yrotation
                End Site
                {
                  OFFSET 0 0 0
                }
              }
              JOINT ThumbLeft
              {
                OFFSET -7.340119 -0.393061 0.116447
                CHANNELS 3 Zrotation Xrotation Yrotation
                End Site
                {
                  OFFSET 0 0 0
                }
              }
            }
          }
        }
      }
      JOINT ShoulderRight
      {
        OFFSET 4.631224 1.217982 15.770264
        CHANNELS 3 Zrotation Xrotation Yrotation
        JOINT ElbowRight
        {
          OFFSET -2.649677 -15.649947 -20.474631
          CHANNELS 3 Zrotation Xrotation Yrotation
          JOINT WristRight
          {
            OFFSET -1.419506 -22.623842 -10.721222
            CHANNELS 3 Zrotation Xrotation Yrotation
            JOINT HandRight
            {
              OFFSET -0.260631 -6.942923 1.372116
              CHANNELS 3 Zrotation Xrotation Yrotation
              JOINT HandTipRight
              {
                OFFSET 0.832686 -4.443842 0.404796
                CHANNELS 3 Zrotation Xrotation Yrotation
                End Site
                {
                  OFFSET 0 0 0
                }
              }
              JOINT ThumbRight
              {
                OFFSET -7.731910 1.807918 0.723497
                CHANNELS 3 Zrotation Xrotation Yrotation
                End Site
                {
                  OFFSET 0 0 0
                }
              }
            }
          }
        }
      }
    }
  }
  JOINT HipLeft
  {
    OFFSET -0.920324 2.249954 -6.377222
    CHANNELS 3 Zrotation Xrotation Yrotation
    JOINT KneeLeft
    {
      OFFSET -7.090405 -32.444383 -1.489807
      CHANNELS 3 Zrotation Xrotation Yrotation
      JOINT AnkleLeft
      {
        OFFSET -6.827961 -31.698772 -1.616016
        CHANNELS 3 Zrotation Xrotation Yrotation
        JOINT FootLeft
        {
          OFFSET 4.528526 -6.070258 -4.208037
          CHANNELS 3 Zrotation Xrotation Yrotation
          End Site
          {
            OFFSET 0 0 0
          }
        }
      }
    }
  }
  JOINT HipRight
  {
    OFFSET 1.815004 0.911512 0.494087
    CHANNELS 3 Zrotation Xrotation Yrotation
    JOINT KneeRight
    {
      OFFSET -3.102544 -39.651814 -9.544503
      CHANNELS 3 Zrotation Xrotation Yrotation
      JOINT AnkleRight
      {
        OFFSET -21.303515 -10.329435 -12.665818
        CHANNELS 3 Zrotation Xrotation Yrotation
        JOINT FootRight
        {
          OFFSET 4.535816 -7.009167 3.990531
          CHANNELS 3 Zrotation Xrotation Yrotation
          End Site
          {
            OFFSET 0 0 0
          }
        }
      }
    }
  }
}
MOTION
Frames: 6
Frame Time: 0.033333
-26.361628 73.411927 233.552785 -0.734525 -0.731966 -71.900437 0.738649 0.658149 71.893459 -0.120498 1.229485 -0.009316 2.520322 -0.151216 -0.629333 0.000000 0.000000 0.000000 -6.002623 3.451837 1.986941 8.132524 -3.062655 -1.021348 5.137212 -8.857329 0.355339 -8.776028 20.391518 7.162912 0.000000 0.000000 0.000000 0.000000 0.000000 0.000000 -0.000000 0.000000 0.000000 -0.127993 1.164408 -0.011053 -2.576188 2.146080 -0.625186 -1.746272 -4.525546 -0.203825 0.000000 0.000000 0.000000 0.000000 0.000000 0.000000 -1.993753 0.986110 71.623379 0.424061 -1.467148 0.307034 -4.904110 -4.531182 -0.185550 0.000000 0.000000 0.000000 -2.357279 2.980088 71.446543 -3.401192 -0.971385 -0.111977 -12.791973 11.808292 2.487844 0.000000 0.000000 0.000000
-26.661186 73.207693 233.277352 -1.084748 -0.245417 -73.044901 0.998046 0.706181 73.029905 0.118118 0.994009 -0.003660 2.935621 -0.268582 -0.696382 0.000000 0.000000 0.000000 -5.290581 3.403177 1.808578 8.172927 -3.335426 -0.859979 5.878166 -7.346391 0.792928 -12.053481 17.760029 5.737708 0.000000 0.000000 0.000000 0.000000 0.000000 0.000000 0.627536 0.129826 -0.843214 -0.181933 0.760413 0.567787 -3.010706 4.482547 -0.360560 1.978370 -4.399194 0.903248 0.000000 0.000000 0.000000 0.000000 0.000000 0.000000 -0.961637 1.294875 72.839743 0.130516 -1.051369 0.225128 -5.886986 -4.798210 0.274578 0.000000 0.000000 0.000000 -0.811471 2.744175 72.654630 0.365770 -2.476539 0.818551 -13.072339 12.081984 1.722824 0.000000 0.000000 0.000000
-26.997710 72.925196 232.969072 -1.428911 0.277691 -74.246685 0.655264 1.299841 74.242714 -0.000000 0.000000 0.000000 3.434514 -0.388754 -0.784567 0.000000 0.000000 0.000000 -4.506481 3.371393 1.617881 7.800077 -3.378785 -0.682095 6.874548 -5.330574 1.210963 -12.782171 15.341943 4.648264 0.000000 0.000000 0.000000 0.000000 0.000000 0.000000 1.419838 -0.404058 -1.796142 -0.295630 0.954775 1.211461 -3.453735 8.233160 -0.049592 9.712343 -1.538706 3.628087 0.000000 0.000000 0.000000 0.000000 0.000000 0.000000 0.655264 1.299841 74.242714 -0.000000 0.000000 0.000000 -6.406012 -5.470506 0.059287 0.000000 0.000000 0.000000 0.833960 2.461069 73.944782 6.364669 -5.258255 2.469919 -9.606220 16.480060 5.130884 0.000000 0.000000 0.000000
-27.341191 72.609757 232.662484 -1.737322 0.778075 -75.345920 1.192327 1.483974 75.342276 -0.000000 0.000000 0.000000 4.024459 -0.532552 -0.887264 0.000000 0.000000 0.000000 -3.705276 3.385265 1.433276 7.083443 -3.222945 -0.496840 7.896299 -2.718362 1.558686 -15.343397 12.853398 3.552486 0.000000 0.000000 0.000000 0.000000 0.000000 0.000000 2.221776 -0.907396 -2.773157 -0.404916 1.093335 1.876487 -3.972654 12.879186 0.243331 15.702051 -0.415726 6.281309 0.000000 0.000000 0.000000 0.000000 0.000000 0.000000 1.192327 1.483974 75.342276 -0.000000 0.000000 0.000000 -6.136056 -5.817746 -0.430637 0.000000 0.000000 0.000000 2.656981 2.098522 75.162265 14.298738 -8.732957 4.867121 -8.657380 24.489731 8.143947 0.000000 0.000000 0.000000
-27.680615 72.295798 232.382709 -2.018880 1.222917 -76.328464 1.519382 0.708748 76.302482 0.971088 0.086382 0.025521 4.492149 -0.715396 -0.939273 0.000000 0.000000 0.000000 -2.963184 3.443823 1.271437 6.306828 -3.000510 -0.314195 8.354708 0.242364 1.749921 -18.680788 10.873078 2.547284 0.000000 0.000000 0.000000 0.000000 0.000000 0.000000 2.966788 -1.360957 -3.688846 -0.503314 1.208086 2.502867 -4.223724 18.263190 0.504537 19.661285 -1.401997 8.994465 0.000000 0.000000 0.000000 0.000000 0.000000 0.000000 2.109269 2.497333 76.319507 -0.906132 0.236018 -0.008089 -5.443032 -5.916816 -0.994276 0.000000 0.000000 0.000000 3.925786 2.149992 76.172262 21.958885 -12.301907 8.014655 -14.374235 33.976427 9.780414 0.000000 0.000000 0.000000
-27.960009 72.056080 232.189571 -2.225065 1.544642 -77.419741 1.540405 0.679245 77.392814 1.226755 -0.188338 0.036942 4.802842 -0.791639 -0.992126 0.000000 0.000000 0.000000 -2.365381 3.478986 1.138574 5.585332 -2.613624 -0.128723 8.211540 3.399831 1.815286 -21.303526 7.066560 0.207932 0.000000 0.000000 0.000000 0.000000 0.000000 0.000000 3.615689 -2.176162 -4.426250 -0.628165 1.617308 3.011519 -5.597766 23.977091 0.698498 23.411897 -2.532634 12.278781 0.000000 0.000000 0.000000 0.000000 0.000000 0.000000 2.937887 2.932073 77.469358 -1.275484 0.684824 -0.083244 -3.948212 -5.715203 -1.836923 0.000000 0.000000 0.000000 4.711124 2.380396 77.244424 30.270477 -15.879619 11.554601 -18.011866 45.659554 13.474811 0.000000 0.000000 0.000000
